<?xml version="1.0" encoding="UTF-8"?>
<svg xmlns="http://www.w3.org/2000/svg" viewBox="0 0 1024 1024" width="1024" height="1024">
  <defs>
    <linearGradient id="bgGrad" x1="0" y1="0" x2="0" y2="1">
      <stop offset="0%" stop-color="#232325"/>
      <stop offset="100%" stop-color="#151517"/>
    </linearGradient>

    <linearGradient id="copperGrad" x1="0" y1="0.12" x2="0" y2="0.88">
      <stop offset="0%" stop-color="#E0B88E"/>
      <stop offset="25%" stop-color="#C8956C"/>
      <stop offset="60%" stop-color="#AE7A50"/>
      <stop offset="100%" stop-color="#946040"/>
    </linearGradient>

    <linearGradient id="sheenGrad" x1="0.15" y1="0" x2="0.6" y2="0.45">
      <stop offset="0%" stop-color="#F4DEC4" stop-opacity="0.28"/>
      <stop offset="45%" stop-color="#C8956C" stop-opacity="0"/>
      <stop offset="100%" stop-color="#946040" stop-opacity="0"/>
    </linearGradient>

    <filter id="glow" x="-30%" y="-30%" width="160%" height="160%">
      <feGaussianBlur in="SourceGraphic" stdDeviation="26"/>
    </filter>

    <filter id="shadow" x="-10%" y="-5%" width="120%" height="120%">
      <feDropShadow dx="0" dy="8" stdDeviation="14" flood-color="#000" flood-opacity="0.50"/>
    </filter>

    <clipPath id="iconClip">
      <rect width="1024" height="1024" rx="225" ry="225"/>
    </clipPath>
  </defs>

  <g clip-path="url(#iconClip)">
    <!-- Dark background with subtle gradient -->
    <rect width="1024" height="1024" fill="url(#bgGrad)"/>
    <!-- Inner edge for definition -->
    <rect x="1" y="1" width="1022" height="1022" fill="none" stroke="#000" stroke-width="2" stroke-opacity="0.3" rx="224" ry="224"/>
    <!-- Subtle top highlight for depth -->
    <ellipse cx="512" cy="260" rx="380" ry="260" fill="#fff" opacity="0.015"/>

    <!-- Soft copper glow -->
    <g filter="url(#glow)" opacity="0.12">
      <path d="M 590.4 234.5 L 587.8 232.4 L 584.7 230.3 L 581.4 228.1 L 577.7 225.9 L 573.6 223.7 L 569.3 221.5 L 564.6 219.3 L 559.5 217.9 L 554.1 216.4 L 548.5 214.8 L 542.7 213.1 L 536.6 211.4 L 530.3 209.7 L 523.7 208.0 L 516.9 206.3 L 509.8 204.8 L 502.5 203.3 L 494.9 201.9 L 487.1 200.8 L 478.7 199.8 L 467.0 199.5 L 455.3 199.8 L 443.5 200.7 L 431.7 202.1 L 420.0 204.3 L 408.4 207.0 L 397.0 210.5 L 385.8 214.7 L 374.8 219.5 L 364.2 225.2 L 354.0 231.7 L 344.3 238.9 L 335.2 247.0 L 326.8 256.0 L 319.2 265.7 L 312.5 276.3 L 306.8 287.6 L 302.3 299.5 L 298.9 312.0 L 296.9 324.9 L 296.1 337.4 L 296.5 349.5 L 298.1 361.2 L 300.8 372.5 L 304.7 383.2 L 309.5 393.2 L 315.2 402.4 L 321.7 411.0 L 328.8 418.9 L 336.4 426.1 L 344.5 432.8 L 353.0 438.9 L 361.8 444.7 L 371.0 450.1 L 380.5 455.2 L 390.3 460.1 L 400.3 464.8 L 410.6 469.5 L 421.1 474.0 L 431.8 478.4 L 440.6 482.0 L 449.3 485.6 L 457.8 489.3 L 466.3 493.0 L 474.6 496.8 L 482.7 500.6 L 490.7 504.5 L 498.5 508.5 L 506.2 512.5 L 513.6 516.6 L 520.8 520.7 L 527.8 524.9 L 534.6 529.2 L 541.1 533.5 L 547.4 537.9 L 553.4 542.3 L 559.1 546.8 L 564.5 551.3 L 569.6 555.9 L 574.9 561.0 L 581.5 567.5 L 587.7 574.3 L 593.4 581.3 L 598.5 588.6 L 603.2 596.1 L 607.3 603.8 L 610.9 611.6 L 613.9 619.5 L 616.4 627.4 L 618.3 635.3 L 619.6 643.1 L 620.4 650.9 L 620.7 658.5 L 620.5 665.9 L 619.7 673.2 L 618.5 680.3 L 616.8 687.2 L 614.7 694.0 L 612.1 700.6 L 609.5 706.1 L 606.0 711.9 L 602.3 717.5 L 598.4 722.8 L 594.2 727.9 L 589.8 732.7 L 585.1 737.4 L 580.3 742.0 L 575.2 746.3 L 569.9 750.5 L 564.3 754.5 L 558.5 758.3 L 552.3 761.8 L 545.9 765.1 L 539.2 768.1 L 532.2 770.8 L 524.8 773.1 L 517.2 775.0 L 509.3 776.5 L 501.1 777.4 L 492.7 777.9 L 485.8 778.2 L 479.0 778.2 L 472.3 778.0 L 465.7 777.6 L 459.2 776.8 L 452.8 775.9 L 446.6 774.6 L 440.6 773.1 L 434.7 771.3 L 429.1 769.3 L 423.7 767.0 L 418.5 764.5 L 413.7 761.7 L 408.7 759.4 L 403.8 757.1 L 399.1 754.6 L 394.6 752.1 L 390.4 749.4 L 386.3 746.7 L 382.4 743.9 L 373.6 752.1 L 376.6 756.4 L 379.9 760.8 L 383.5 765.2 L 387.5 769.5 L 391.7 773.7 L 396.2 777.9 L 401.0 782.1 L 406.5 785.4 L 412.1 788.8 L 417.9 792.2 L 423.9 795.6 L 430.1 798.9 L 436.4 802.2 L 443.0 805.5 L 449.8 808.6 L 456.8 811.6 L 464.1 814.5 L 471.6 817.2 L 479.4 819.8 L 487.3 822.1 L 498.3 824.4 L 509.3 825.9 L 520.4 826.8 L 531.5 827.0 L 542.5 826.4 L 553.5 825.2 L 564.3 823.2 L 575.0 820.4 L 585.5 817.0 L 595.7 812.7 L 605.5 807.8 L 615.0 802.1 L 624.0 795.7 L 632.6 788.7 L 640.5 780.9 L 647.9 772.5 L 654.6 763.6 L 660.6 754.2 L 665.9 744.2 L 670.5 733.9 L 674.7 721.3 L 677.4 709.6 L 679.1 697.9 L 679.9 686.2 L 679.8 674.7 L 678.9 663.3 L 677.2 652.1 L 674.8 641.2 L 671.7 630.4 L 668.0 620.0 L 663.7 609.7 L 658.9 599.7 L 653.6 590.0 L 647.8 580.5 L 641.7 571.3 L 635.1 562.4 L 628.1 553.6 L 620.8 545.1 L 613.1 536.9 L 605.1 529.0 L 599.6 523.7 L 593.3 518.1 L 586.8 512.6 L 580.1 507.3 L 573.1 502.2 L 565.9 497.1 L 558.5 492.2 L 550.9 487.4 L 543.1 482.8 L 535.1 478.2 L 527.0 473.7 L 518.7 469.4 L 510.3 465.1 L 501.8 460.9 L 493.1 456.8 L 484.3 452.8 L 475.4 448.9 L 466.4 445.1 L 457.3 441.3 L 448.2 437.6 L 438.2 433.5 L 428.7 429.3 L 419.7 424.9 L 411.2 420.3 L 403.3 415.5 L 395.9 410.5 L 389.3 405.4 L 383.3 400.2 L 378.1 394.9 L 373.6 389.6 L 369.8 384.4 L 366.8 379.1 L 364.4 374.0 L 362.7 368.9 L 361.6 363.8 L 360.9 358.7 L 360.7 353.4 L 361.0 347.8 L 361.8 341.7 L 363.1 335.1 L 364.9 328.6 L 367.2 322.6 L 369.9 316.8 L 372.9 311.3 L 376.5 306.0 L 380.4 300.7 L 384.8 295.5 L 389.6 290.3 L 394.9 285.3 L 400.8 280.3 L 407.1 275.5 L 413.9 270.8 L 421.1 266.4 L 428.8 262.2 L 436.8 258.3 L 445.2 254.7 L 453.9 251.5 L 462.8 248.7 L 472.0 246.2 L 481.3 244.2 L 487.7 242.9 L 494.4 241.7 L 501.1 240.7 L 507.6 239.9 L 514.0 239.3 L 520.2 239.0 L 526.3 238.9 L 532.3 238.9 L 538.0 239.2 L 543.5 239.7 L 548.7 240.4 L 553.7 241.4 L 558.4 242.5 L 563.1 242.9 L 567.5 243.3 L 571.6 243.8 L 575.5 244.3 L 579.2 244.7 L 582.5 245.1 L 585.6 245.5 Z" fill="#C8956C"/>
    </g>

    <!-- Calligraphic S with drop shadow -->
    <g filter="url(#shadow)">
      <path d="M 590.4 234.5 L 587.8 232.4 L 584.7 230.3 L 581.4 228.1 L 577.7 225.9 L 573.6 223.7 L 569.3 221.5 L 564.6 219.3 L 559.5 217.9 L 554.1 216.4 L 548.5 214.8 L 542.7 213.1 L 536.6 211.4 L 530.3 209.7 L 523.7 208.0 L 516.9 206.3 L 509.8 204.8 L 502.5 203.3 L 494.9 201.9 L 487.1 200.8 L 478.7 199.8 L 467.0 199.5 L 455.3 199.8 L 443.5 200.7 L 431.7 202.1 L 420.0 204.3 L 408.4 207.0 L 397.0 210.5 L 385.8 214.7 L 374.8 219.5 L 364.2 225.2 L 354.0 231.7 L 344.3 238.9 L 335.2 247.0 L 326.8 256.0 L 319.2 265.7 L 312.5 276.3 L 306.8 287.6 L 302.3 299.5 L 298.9 312.0 L 296.9 324.9 L 296.1 337.4 L 296.5 349.5 L 298.1 361.2 L 300.8 372.5 L 304.7 383.2 L 309.5 393.2 L 315.2 402.4 L 321.7 411.0 L 328.8 418.9 L 336.4 426.1 L 344.5 432.8 L 353.0 438.9 L 361.8 444.7 L 371.0 450.1 L 380.5 455.2 L 390.3 460.1 L 400.3 464.8 L 410.6 469.5 L 421.1 474.0 L 431.8 478.4 L 440.6 482.0 L 449.3 485.6 L 457.8 489.3 L 466.3 493.0 L 474.6 496.8 L 482.7 500.6 L 490.7 504.5 L 498.5 508.5 L 506.2 512.5 L 513.6 516.6 L 520.8 520.7 L 527.8 524.9 L 534.6 529.2 L 541.1 533.5 L 547.4 537.9 L 553.4 542.3 L 559.1 546.8 L 564.5 551.3 L 569.6 555.9 L 574.9 561.0 L 581.5 567.5 L 587.7 574.3 L 593.4 581.3 L 598.5 588.6 L 603.2 596.1 L 607.3 603.8 L 610.9 611.6 L 613.9 619.5 L 616.4 627.4 L 618.3 635.3 L 619.6 643.1 L 620.4 650.9 L 620.7 658.5 L 620.5 665.9 L 619.7 673.2 L 618.5 680.3 L 616.8 687.2 L 614.7 694.0 L 612.1 700.6 L 609.5 706.1 L 606.0 711.9 L 602.3 717.5 L 598.4 722.8 L 594.2 727.9 L 589.8 732.7 L 585.1 737.4 L 580.3 742.0 L 575.2 746.3 L 569.9 750.5 L 564.3 754.5 L 558.5 758.3 L 552.3 761.8 L 545.9 765.1 L 539.2 768.1 L 532.2 770.8 L 524.8 773.1 L 517.2 775.0 L 509.3 776.5 L 501.1 777.4 L 492.7 777.9 L 485.8 778.2 L 479.0 778.2 L 472.3 778.0 L 465.7 777.6 L 459.2 776.8 L 452.8 775.9 L 446.6 774.6 L 440.6 773.1 L 434.7 771.3 L 429.1 769.3 L 423.7 767.0 L 418.5 764.5 L 413.7 761.7 L 408.7 759.4 L 403.8 757.1 L 399.1 754.6 L 394.6 752.1 L 390.4 749.4 L 386.3 746.7 L 382.4 743.9 L 373.6 752.1 L 376.6 756.4 L 379.9 760.8 L 383.5 765.2 L 387.5 769.5 L 391.7 773.7 L 396.2 777.9 L 401.0 782.1 L 406.5 785.4 L 412.1 788.8 L 417.9 792.2 L 423.9 795.6 L 430.1 798.9 L 436.4 802.2 L 443.0 805.5 L 449.8 808.6 L 456.8 811.6 L 464.1 814.5 L 471.6 817.2 L 479.4 819.8 L 487.3 822.1 L 498.3 824.4 L 509.3 825.9 L 520.4 826.8 L 531.5 827.0 L 542.5 826.4 L 553.5 825.2 L 564.3 823.2 L 575.0 820.4 L 585.5 817.0 L 595.7 812.7 L 605.5 807.8 L 615.0 802.1 L 624.0 795.7 L 632.6 788.7 L 640.5 780.9 L 647.9 772.5 L 654.6 763.6 L 660.6 754.2 L 665.9 744.2 L 670.5 733.9 L 674.7 721.3 L 677.4 709.6 L 679.1 697.9 L 679.9 686.2 L 679.8 674.7 L 678.9 663.3 L 677.2 652.1 L 674.8 641.2 L 671.7 630.4 L 668.0 620.0 L 663.7 609.7 L 658.9 599.7 L 653.6 590.0 L 647.8 580.5 L 641.7 571.3 L 635.1 562.4 L 628.1 553.6 L 620.8 545.1 L 613.1 536.9 L 605.1 529.0 L 599.6 523.7 L 593.3 518.1 L 586.8 512.6 L 580.1 507.3 L 573.1 502.2 L 565.9 497.1 L 558.5 492.2 L 550.9 487.4 L 543.1 482.8 L 535.1 478.2 L 527.0 473.7 L 518.7 469.4 L 510.3 465.1 L 501.8 460.9 L 493.1 456.8 L 484.3 452.8 L 475.4 448.9 L 466.4 445.1 L 457.3 441.3 L 448.2 437.6 L 438.2 433.5 L 428.7 429.3 L 419.7 424.9 L 411.2 420.3 L 403.3 415.5 L 395.9 410.5 L 389.3 405.4 L 383.3 400.2 L 378.1 394.9 L 373.6 389.6 L 369.8 384.4 L 366.8 379.1 L 364.4 374.0 L 362.7 368.9 L 361.6 363.8 L 360.9 358.7 L 360.7 353.4 L 361.0 347.8 L 361.8 341.7 L 363.1 335.1 L 364.9 328.6 L 367.2 322.6 L 369.9 316.8 L 372.9 311.3 L 376.5 306.0 L 380.4 300.7 L 384.8 295.5 L 389.6 290.3 L 394.9 285.3 L 400.8 280.3 L 407.1 275.5 L 413.9 270.8 L 421.1 266.4 L 428.8 262.2 L 436.8 258.3 L 445.2 254.7 L 453.9 251.5 L 462.8 248.7 L 472.0 246.2 L 481.3 244.2 L 487.7 242.9 L 494.4 241.7 L 501.1 240.7 L 507.6 239.9 L 514.0 239.3 L 520.2 239.0 L 526.3 238.9 L 532.3 238.9 L 538.0 239.2 L 543.5 239.7 L 548.7 240.4 L 553.7 241.4 L 558.4 242.5 L 563.1 242.9 L 567.5 243.3 L 571.6 243.8 L 575.5 244.3 L 579.2 244.7 L 582.5 245.1 L 585.6 245.5 Z" fill="url(#copperGrad)"/>
    </g>

    <!-- Premium sheen overlay -->
    <path d="M 590.4 234.5 L 587.8 232.4 L 584.7 230.3 L 581.4 228.1 L 577.7 225.9 L 573.6 223.7 L 569.3 221.5 L 564.6 219.3 L 559.5 217.9 L 554.1 216.4 L 548.5 214.8 L 542.7 213.1 L 536.6 211.4 L 530.3 209.7 L 523.7 208.0 L 516.9 206.3 L 509.8 204.8 L 502.5 203.3 L 494.9 201.9 L 487.1 200.8 L 478.7 199.8 L 467.0 199.5 L 455.3 199.8 L 443.5 200.7 L 431.7 202.1 L 420.0 204.3 L 408.4 207.0 L 397.0 210.5 L 385.8 214.7 L 374.8 219.5 L 364.2 225.2 L 354.0 231.7 L 344.3 238.9 L 335.2 247.0 L 326.8 256.0 L 319.2 265.7 L 312.5 276.3 L 306.8 287.6 L 302.3 299.5 L 298.9 312.0 L 296.9 324.9 L 296.1 337.4 L 296.5 349.5 L 298.1 361.2 L 300.8 372.5 L 304.7 383.2 L 309.5 393.2 L 315.2 402.4 L 321.7 411.0 L 328.8 418.9 L 336.4 426.1 L 344.5 432.8 L 353.0 438.9 L 361.8 444.7 L 371.0 450.1 L 380.5 455.2 L 390.3 460.1 L 400.3 464.8 L 410.6 469.5 L 421.1 474.0 L 431.8 478.4 L 440.6 482.0 L 449.3 485.6 L 457.8 489.3 L 466.3 493.0 L 474.6 496.8 L 482.7 500.6 L 490.7 504.5 L 498.5 508.5 L 506.2 512.5 L 513.6 516.6 L 520.8 520.7 L 527.8 524.9 L 534.6 529.2 L 541.1 533.5 L 547.4 537.9 L 553.4 542.3 L 559.1 546.8 L 564.5 551.3 L 569.6 555.9 L 574.9 561.0 L 581.5 567.5 L 587.7 574.3 L 593.4 581.3 L 598.5 588.6 L 603.2 596.1 L 607.3 603.8 L 610.9 611.6 L 613.9 619.5 L 616.4 627.4 L 618.3 635.3 L 619.6 643.1 L 620.4 650.9 L 620.7 658.5 L 620.5 665.9 L 619.7 673.2 L 618.5 680.3 L 616.8 687.2 L 614.7 694.0 L 612.1 700.6 L 609.5 706.1 L 606.0 711.9 L 602.3 717.5 L 598.4 722.8 L 594.2 727.9 L 589.8 732.7 L 585.1 737.4 L 580.3 742.0 L 575.2 746.3 L 569.9 750.5 L 564.3 754.5 L 558.5 758.3 L 552.3 761.8 L 545.9 765.1 L 539.2 768.1 L 532.2 770.8 L 524.8 773.1 L 517.2 775.0 L 509.3 776.5 L 501.1 777.4 L 492.7 777.9 L 485.8 778.2 L 479.0 778.2 L 472.3 778.0 L 465.7 777.6 L 459.2 776.8 L 452.8 775.9 L 446.6 774.6 L 440.6 773.1 L 434.7 771.3 L 429.1 769.3 L 423.7 767.0 L 418.5 764.5 L 413.7 761.7 L 408.7 759.4 L 403.8 757.1 L 399.1 754.6 L 394.6 752.1 L 390.4 749.4 L 386.3 746.7 L 382.4 743.9 L 373.6 752.1 L 376.6 756.4 L 379.9 760.8 L 383.5 765.2 L 387.5 769.5 L 391.7 773.7 L 396.2 777.9 L 401.0 782.1 L 406.5 785.4 L 412.1 788.8 L 417.9 792.2 L 423.9 795.6 L 430.1 798.9 L 436.4 802.2 L 443.0 805.5 L 449.8 808.6 L 456.8 811.6 L 464.1 814.5 L 471.6 817.2 L 479.4 819.8 L 487.3 822.1 L 498.3 824.4 L 509.3 825.9 L 520.4 826.8 L 531.5 827.0 L 542.5 826.4 L 553.5 825.2 L 564.3 823.2 L 575.0 820.4 L 585.5 817.0 L 595.7 812.7 L 605.5 807.8 L 615.0 802.1 L 624.0 795.7 L 632.6 788.7 L 640.5 780.9 L 647.9 772.5 L 654.6 763.6 L 660.6 754.2 L 665.9 744.2 L 670.5 733.9 L 674.7 721.3 L 677.4 709.6 L 679.1 697.9 L 679.9 686.2 L 679.8 674.7 L 678.9 663.3 L 677.2 652.1 L 674.8 641.2 L 671.7 630.4 L 668.0 620.0 L 663.7 609.7 L 658.9 599.7 L 653.6 590.0 L 647.8 580.5 L 641.7 571.3 L 635.1 562.4 L 628.1 553.6 L 620.8 545.1 L 613.1 536.9 L 605.1 529.0 L 599.6 523.7 L 593.3 518.1 L 586.8 512.6 L 580.1 507.3 L 573.1 502.2 L 565.9 497.1 L 558.5 492.2 L 550.9 487.4 L 543.1 482.8 L 535.1 478.2 L 527.0 473.7 L 518.7 469.4 L 510.3 465.1 L 501.8 460.9 L 493.1 456.8 L 484.3 452.8 L 475.4 448.9 L 466.4 445.1 L 457.3 441.3 L 448.2 437.6 L 438.2 433.5 L 428.7 429.3 L 419.7 424.9 L 411.2 420.3 L 403.3 415.5 L 395.9 410.5 L 389.3 405.4 L 383.3 400.2 L 378.1 394.9 L 373.6 389.6 L 369.8 384.4 L 366.8 379.1 L 364.4 374.0 L 362.7 368.9 L 361.6 363.8 L 360.9 358.7 L 360.7 353.4 L 361.0 347.8 L 361.8 341.7 L 363.1 335.1 L 364.9 328.6 L 367.2 322.6 L 369.9 316.8 L 372.9 311.3 L 376.5 306.0 L 380.4 300.7 L 384.8 295.5 L 389.6 290.3 L 394.9 285.3 L 400.8 280.3 L 407.1 275.5 L 413.9 270.8 L 421.1 266.4 L 428.8 262.2 L 436.8 258.3 L 445.2 254.7 L 453.9 251.5 L 462.8 248.7 L 472.0 246.2 L 481.3 244.2 L 487.7 242.9 L 494.4 241.7 L 501.1 240.7 L 507.6 239.9 L 514.0 239.3 L 520.2 239.0 L 526.3 238.9 L 532.3 238.9 L 538.0 239.2 L 543.5 239.7 L 548.7 240.4 L 553.7 241.4 L 558.4 242.5 L 563.1 242.9 L 567.5 243.3 L 571.6 243.8 L 575.5 244.3 L 579.2 244.7 L 582.5 245.1 L 585.6 245.5 Z" fill="url(#sheenGrad)"/>
  </g>
</svg>